<svg version="1.1" xmlns="http://www.w3.org/2000/svg" width="408" height="66">
  <title>format message</title>
  <style>
    @keyframes blink {
      0%, 98%, 100% {
        transform: scaleY(1);
      }
      99% {
        transform: scaleY(0);
      }
    }
    #e {
      transform-origin: 0 36px;
      animation: blink 10s ease infinite;
    }
  </style>
  <path fill="#749DB5" d="
    M17,65
    v-16
    a16,16,0,0,1,-16,-16
    v-16
    a16,16,0,0,1,16,-16
    h16
    l12,24 -12,24
    z"
  />
  <path fill="#72B483" d="
    M49,65
    v-16
    h-8
    l12,-24 -12,-24
    h24
    a16,16,0,0,1,16,16
    v16
    a16,16,0,0,1,-16,16
    z"
  />
  <path fill="#fff" id="e" d="
    M21,17
    a8,8,0,0,0,0,16
    a8,8,0,0,0,0,-16
    z
    M69,17 h-8 v16 h8
    z"
  />
  <path fill="#484848" d="
    M 111.674,10.432 c -1.012,-0.414 -2.346,-0.736 -3.726,-0.736 -4.462,0 -6.532,2.852 -6.532,7.406 l 0,3.542 -3.036,0.23 0,2.852 3.036,0 0,19.274 3.772,0 0,-19.274 4.738,0 0,-3.082 -4.738,0 0,-3.542 c 0,-2.852 1.012,-4.324 3.128,-4.324 0.828,0 1.702,0.184 2.53,0.552 l 0.828,-2.898 z
    M 122.49334,43.552 c 5.474,0 10.35,-4.278 10.35,-11.684 0,-7.498 -4.876,-11.776 -10.35,-11.776 -5.474,0 -10.35,4.278 -10.35,11.776 0,7.406 4.876,11.684 10.35,11.684 z m 0,-3.128 c -3.818,0 -6.44,-3.45 -6.44,-8.556 0,-5.152 2.622,-8.648 6.44,-8.648 3.864,0 6.44,3.496 6.44,8.648 0,5.106 -2.576,8.556 -6.44,8.556 z
    M 138.77591,43 l 3.772,0 0,-14.352 c 1.518,-3.772 3.772,-5.152 5.658,-5.152 0.92,0 1.426,0.138 2.162,0.368 l 0.736,-3.312 c -0.736,-0.322 -1.426,-0.46 -2.392,-0.46 -2.53,0 -4.83,1.794 -6.348,4.6 l -0.138,0 -0.322,-4.048 -3.128,0 0,22.356 z
    M 154.76809,43 l 3.772,0 0,-16.192 c 2.07,-2.3 3.956,-3.45 5.612,-3.45 2.852,0 4.186,1.794 4.186,5.98 l 0,13.662 3.772,0 0,-16.192 c 2.07,-2.3 3.864,-3.45 5.612,-3.45 2.806,0 4.14,1.794 4.14,5.98 l 0,13.662 3.772,0 0,-14.168 c 0,-5.704 -2.208,-8.74 -6.808,-8.74 -2.714,0 -5.014,1.748 -7.36,4.278 -0.92,-2.668 -2.76,-4.278 -6.164,-4.278 -2.668,0 -5.014,1.656 -6.946,3.772 l -0.138,0 -0.322,-3.22 -3.128,0 0,22.356 z
    M 198.10369,43.552 c 2.806,0 5.29,-1.472 7.406,-3.22 l 0.138,0 0.322,2.668 3.128,0 0,-13.708 c 0,-5.566 -2.3,-9.2 -7.774,-9.2 -3.588,0 -6.716,1.564 -8.786,2.898 l 1.472,2.622 c 1.748,-1.196 4.094,-2.392 6.67,-2.392 3.68,0 4.6,2.76 4.6,5.612 -9.522,1.058 -13.708,3.496 -13.708,8.372 0,4.002 2.806,6.348 6.532,6.348 z m 1.104,-3.036 c -2.208,0 -3.956,-1.058 -3.956,-3.588 0,-2.852 2.576,-4.692 10.028,-5.612 l 0,6.21 c -2.162,1.932 -3.91,2.99 -6.072,2.99 z
    M 222.54047,43.552 c 1.38,0 2.898,-0.414 4.14,-0.828 l -0.736,-2.852 c -0.736,0.276 -1.748,0.598 -2.53,0.598 -2.576,0 -3.45,-1.564 -3.45,-4.324 l 0,-12.42 6.026,0 0,-3.082 -6.026,0 0,-6.256 -3.174,0 -0.46,6.256 -3.496,0.23 0,2.852 3.312,0 0,12.374 c 0,4.416 1.61,7.452 6.394,7.452 z
    M 240.11966,43 l 3.772,0 0,-16.192 c 2.07,-2.3 3.956,-3.45 5.612,-3.45 2.852,0 4.186,1.794 4.186,5.98 l 0,13.662 3.772,0 0,-16.192 c 2.07,-2.3 3.864,-3.45 5.612,-3.45 2.806,0 4.14,1.794 4.14,5.98 l 0,13.662 3.772,0 0,-14.168 c 0,-5.704 -2.208,-8.74 -6.808,-8.74 -2.714,0 -5.014,1.748 -7.36,4.278 -0.92,-2.668 -2.76,-4.278 -6.164,-4.278 -2.668,0 -5.014,1.656 -6.946,3.772 l -0.138,0 -0.322,-3.22 -3.128,0 0,22.356 z
    M 287.36525,43.552 c 3.036,0 5.428,-1.058 7.36,-2.3 l -1.334,-2.484 c -1.656,1.058 -3.45,1.748 -5.566,1.748 -4.278,0 -7.176,-3.036 -7.452,-7.774 l 15.088,0 c 0.092,-0.552 0.138,-1.38 0.138,-2.162 0,-6.394 -3.22,-10.488 -8.924,-10.488 -5.106,0 -10.028,4.462 -10.028,11.776 0,7.314 4.738,11.684 10.718,11.684 z m -7.038,-13.524 c 0.46,-4.416 3.312,-6.946 6.44,-6.946 3.496,0 5.52,2.438 5.52,6.946 l -11.96,0 z
    M 306.96556,43.552 c 5.29,0 8.188,-3.036 8.188,-6.67 0,-4.232 -3.588,-5.566 -6.808,-6.762 -2.53,-0.966 -4.968,-1.748 -4.968,-3.864 0,-1.702 1.288,-3.22 4.094,-3.22 1.978,0 3.588,0.828 5.106,1.978 l 1.794,-2.392 c -1.702,-1.38 -4.14,-2.53 -6.946,-2.53 -4.83,0 -7.682,2.76 -7.682,6.348 0,3.772 3.496,5.29 6.67,6.44 2.438,0.92 5.106,1.932 5.106,4.232 0,1.932 -1.472,3.496 -4.416,3.496 -2.668,0 -4.646,-1.104 -6.578,-2.668 l -1.886,2.53 c 2.116,1.748 5.152,3.082 8.326,3.082 z
    M 326.19212,43.552 c 5.29,0 8.18801,-3.036 8.18801,-6.67 0,-4.232 -3.58801,-5.566 -6.808,-6.762 -2.53001,-0.966 -4.96801,-1.748 -4.96801,-3.864 0,-1.702 1.28801,-3.22 4.094,-3.22 1.97801,0 3.58801,0.828 5.106,1.978 l 1.794,-2.392 c -1.702,-1.38 -4.14,-2.53 -6.946,-2.53 -4.82999,0 -7.682,2.76 -7.682,6.348 0,3.772 3.496,5.29 6.67,6.44 2.438,0.92 5.106,1.932 5.106,4.232 0,1.932 -1.47199,3.496 -4.416,3.496 -2.668,0 -4.646,-1.104 -6.578,-2.668 l -1.886,2.53 c 2.116,1.748 5.152,3.082 8.326,3.082 z
    M 344.72869,43.552 c 2.806,0 5.29,-1.472 7.406,-3.22 l 0.138,0 0.322,2.668 3.128,0 0,-13.708 c 0,-5.566 -2.3,-9.2 -7.774,-9.2 -3.588,0 -6.716,1.564 -8.786,2.898 l 1.472,2.622 c 1.748,-1.196 4.094,-2.392 6.67,-2.392 3.68,0 4.6,2.76 4.6,5.612 -9.522,1.058 -13.708,3.496 -13.708,8.372 0,4.002 2.806,6.348 6.532,6.348 z m 1.104,-3.036 c -2.208,0 -3.956,-1.058 -3.956,-3.588 0,-2.852 2.576,-4.692 10.028,-5.612 l 0,6.21 c -2.162,1.932 -3.91,2.99 -6.072,2.99 z
    M 370.30037,53.304 c 6.946,0 11.316,-3.588 11.316,-7.728 0,-3.726 -2.622,-5.336 -7.82,-5.336 l -4.324,0 c -3.036,0 -3.956,-1.012 -3.956,-2.438 0,-1.242 0.644,-1.978 1.42601,-2.668 1.012,0.506 2.25399,0.782 3.35799,0.782 4.554,0 8.18801,-2.99 8.18801,-7.774 0,-1.886 -0.78201,-3.588 -1.84001,-4.6 l 4.6,0 0,-2.898 -7.774,0 c -0.828,-0.322 -1.932,-0.552 -3.174,-0.552 -4.554,0 -8.41799,3.082 -8.41799,7.958 0,2.668 1.42599,4.83 2.89799,6.026 l 0,0.184 c -1.14999,0.782 -2.438,2.254 -2.438,4.14 0,1.748 0.87401,2.944 1.97801,3.634 l 0,0.184 c -2.02401,1.38 -3.26601,3.174 -3.26601,5.06 0,3.864 3.772,6.026 9.246,6.026 z m 0,-19.918 c -2.576,0 -4.738,-2.07 -4.738,-5.336 0,-3.266 2.11601,-5.198 4.738,-5.198 2.622,0 4.738,1.932 4.738,5.198 0,3.266 -2.162,5.336 -4.738,5.336 z m 0.552,17.296 c -4.048,0 -6.486,-1.518 -6.486,-3.91 0,-1.288 0.69,-2.622 2.30001,-3.772 0.966,0.276 2.024,0.368 2.89799,0.368 l 3.86401,0 c 2.89799,0 4.50799,0.69 4.50799,2.76 0,2.346 -2.80599,4.554 -7.084,4.554 z
    M 394.36916,43.552 c 3.036,0 5.428,-1.058 7.36,-2.3 l -1.334,-2.484 c -1.656,1.058 -3.45,1.748 -5.566,1.748 -4.278,0 -7.176,-3.036 -7.452,-7.774 l 15.088,0 c 0.092,-0.552 0.138,-1.38 0.138,-2.162 0,-6.394 -3.22,-10.488 -8.924,-10.488 -5.106,0 -10.028,4.462 -10.028,11.776 0,7.314 4.738,11.684 10.718,11.684 z m -7.038,-13.524 c 0.46,-4.416 3.312,-6.946 6.44,-6.946 3.496,0 5.52,2.438 5.52,6.946 l -11.96,0 z"
  />
</svg>
