<svg version="1.1" xmlns="http://www.w3.org/2000/svg" width="424" height="64">
  <style>
    @-webkit-keyframes blink {
      0%, 98%, 100% {
        -webkit-transform: scaleY(1);
      }
      99% {
        -webkit-transform: scaleY(0);
      }
    }
    @keyframes blink {
      0%, 98%, 100% {
        transform: scaleY(1);
      }
      99% {
        transform: scaleY(0);
      }
    }
    #e {
      -webkit-transform-origin: 0 36px;
      transform-origin: 0 36px;
      -webkit-animation: blink 10s ease infinite;
      animation: blink 10s ease infinite;
    }
  </style>
  <path fill="#08F" d="
    M16,64
    v-16
    a16,16,0,0,1,-16,-16
    v-16
    a16,16,0,0,1,16,-16
    h16
    l12,24 -12,24
    z"
  />
  <path fill="#080" d="
    M48,64
    v-16
    h-8
    l12,-24 -12,-24
    h24
    a16,16,0,0,1,16,16
    v16
    a16,16,0,0,1,-16,16
    z"
  />
  <path fill="#fff" id="e" d="
    M20,16
    a8,8,0,0,0,0,16
    a8,8,0,0,0,0,-16
    z
    M68,16 h-8 v16 h8
    z"
  />
  <text x="96" y="42" font-family="Helvetica, sans-serif" font-size="46">
    <tspan fill="#080">
      format
    </tspan>
    <tspan fill="#08F">
      message
    </tspan>
  </text>
</svg>
